<svg xmlns="http://www.w3.org/2000/svg" width="219" height="18" viewBox="0 0 219 18" fill="none">
  <path d="M109.514 16.7673H104.406C99.7807 16.7673 96.575 13.5478 96.575 9.40322C96.575 5.21438 99.7705 2.03741 104.406 2.03741H109.514V16.7673ZM107.852 15.2342V3.58076H104.405C100.683 3.58076 98.3063 6.14789 98.3063 9.40663C98.3063 12.7097 100.69 15.2342 104.405 15.2342H107.852Z" fill="#1E1E1E"/>
  <path d="M110.333 17.5867H104.405C101.98 17.5867 99.7722 16.7486 98.1907 15.2308C97.411 14.4757 96.7935 13.5695 96.3758 12.5675C95.958 11.5655 95.7489 10.4888 95.7613 9.40319C95.7613 4.66073 99.396 1.21802 104.405 1.21802H110.333V17.5867ZM108.671 15.9479H108.695V2.85675H108.671V15.9479ZM104.405 4.40691C101.296 4.40691 99.127 6.46471 99.127 9.41341C99.127 12.4081 101.248 14.4216 104.405 14.4216H107.033V4.40691H104.405ZM99.2734 4.81575C98.6671 5.41617 98.1886 6.13324 97.8668 6.92371C97.5449 7.71418 97.3864 8.56168 97.4007 9.41511C97.3888 10.7269 97.7785 12.011 98.5175 13.0946C97.8285 11.9871 97.4738 10.7041 97.4961 9.39978C97.466 7.69587 98.1041 6.04794 99.2734 4.80893V4.81575Z" fill="#1E1E1E"/>
  <path d="M88.7199 16.7673H87.0566V2.03741H88.7199V16.7673Z" fill="#1E1E1E"/>
  <path d="M89.5389 17.5867H86.2378V1.21802H89.5389V17.5867ZM87.8756 15.9479H87.9011V2.85675H87.8756V15.9479Z" fill="#1E1E1E"/>
  <path d="M71.7039 17.0127C69.5244 17.0109 67.421 16.2104 65.7913 14.7624V8.89904H71.8673V10.3913H67.395V14.0537C68.608 15.0031 70.1026 15.521 71.6426 15.5255C75.2178 15.5255 77.4667 12.9175 77.4667 9.40326C77.4667 6.07809 75.1326 3.32358 71.8741 3.32358C69.7937 3.32358 68.5305 4.01689 67.395 5.00661L66.3241 3.74433C67.795 2.5025 69.3307 1.78705 71.8111 1.78705C76.2375 1.78705 79.1913 5.36433 79.1913 9.40326C79.1879 13.6534 76.3295 17.0127 71.7039 17.0127Z" fill="#1E1E1E"/>
  <path d="M71.7039 17.8388C69.3241 17.838 67.0272 16.964 65.2482 15.3824L64.9724 15.1388V8.07964H72.6862V11.2106H68.2105V13.6381C69.2217 14.329 70.4165 14.701 71.6409 14.7061C74.6321 14.7061 76.6444 12.5751 76.6444 9.40323C76.6444 6.40342 74.5913 4.14292 71.8776 4.14292C70.0185 4.14292 68.9579 4.73403 67.9364 5.62324L67.3116 6.16835L65.1716 3.64721L65.7998 3.11743C67.584 1.60986 69.3835 0.967651 71.8146 0.967651C76.4112 0.967651 80.0136 4.6727 80.0136 9.40323C80.0136 11.7217 79.222 13.8323 77.7834 15.3654C76.2478 16.9837 74.1537 17.8388 71.7039 17.8388ZM76.1303 4.21106C76.825 4.88353 77.375 5.691 77.7465 6.58386C78.118 7.47673 78.3032 8.43615 78.2907 9.40323C78.2907 11.2515 77.7323 12.8459 76.7585 14.0401C77.78 12.8613 78.3775 11.2617 78.3775 9.40323C78.369 7.2756 77.5178 5.42904 76.132 4.20765L76.1303 4.21106ZM67.4954 3.87037C67.5738 3.81245 67.6555 3.75453 67.7389 3.70002C67.6606 3.74942 67.5789 3.80563 67.4972 3.86355L67.4954 3.87037Z" fill="#1E1E1E"/>
  <path d="M57.6911 16.7673H56.033V2.03741H57.6911V16.7673Z" fill="#1E1E1E"/>
  <path d="M58.5149 17.5867H55.219V1.21802H58.5149V17.5867ZM56.8568 15.9479H56.8772V2.85675H56.8568V15.9479Z" fill="#1E1E1E"/>
  <path d="M43.6286 16.7673H41.9517V3.58073H37.0044V2.04761H48.5709V3.58073H43.6338L43.6286 16.7673Z" fill="#1E1E1E"/>
  <path d="M44.4476 17.5867H41.1329V4.40693H36.1855V1.22314H49.3898V4.40693H44.4527L44.4476 17.5867ZM42.7706 15.9479H42.8098V2.86188H42.7706V15.9479Z" fill="#1E1E1E"/>
  <path d="M32.8352 16.7673H31.1327L29.3962 12.8749H21.3947L19.6684 16.7673H17.8774L24.5749 1.94714H26.1326L32.8352 16.7673ZM28.7357 11.381L25.3716 3.87036L22.028 11.381H28.7357Z" fill="#1E1E1E"/>
  <path d="M34.1087 17.5867H30.605L28.8651 13.6942H21.9225L20.1962 17.5867H16.6074L24.0471 1.12262H26.6621L34.1087 17.5867ZM23.3015 10.5615H27.4827L25.3853 5.87871L23.3015 10.5615Z" fill="#1E1E1E"/>
  <path d="M10.7577 16.7673H0.812012V15.2342H9.09615V2.03741H10.7577V16.7673Z" fill="#1E1E1E"/>
  <path d="M11.5767 17.5867H0V14.4148H8.28414V1.21802H11.5835L11.5767 17.5867ZM9.91509 15.9479H9.93892V2.85675H9.91509V15.9479Z" fill="#1E1E1E"/>
  <path d="M120.708 14.6029L121.849 13.2929C123.546 14.7839 125.175 15.5302 127.433 15.5302C129.618 15.5302 131.061 14.4012 131.061 12.7954C131.061 11.3235 130.251 10.4904 126.827 9.78975C123.079 9.00228 121.36 7.82622 121.36 5.18119C121.36 2.69661 123.617 0.865555 126.706 0.865555C129.078 0.865555 130.777 1.52202 132.427 2.80847L131.359 4.18619C129.844 2.98805 128.328 2.46846 126.662 2.46846C124.54 2.46846 123.195 3.59742 123.195 5.06786C123.195 6.5383 124.033 7.39642 127.615 8.14121C131.251 8.90955 132.918 10.2019 132.918 12.66C132.918 15.3727 130.592 17.1346 127.357 17.1346C124.78 17.1346 122.664 16.2985 120.708 14.6029Z" fill="#CE2029"/>
  <path d="M127.357 18C124.583 18 122.281 17.1257 120.114 15.249L119.467 14.6882L121.764 12.0505L122.446 12.6511C124.075 14.0818 125.519 14.6646 127.433 14.6646C129.1 14.6646 130.17 13.9287 130.17 12.7953C130.17 12.0888 130.17 11.3587 126.643 10.636C123.434 9.96189 120.469 8.83588 120.469 5.18112C120.469 2.227 123.151 0 126.706 0C129.156 0 131.1 0.657943 132.985 2.1328L133.659 2.65827L131.512 5.42546L130.795 4.85731C129.485 3.81814 128.172 3.33388 126.662 3.33388C125.121 3.33388 124.086 4.03009 124.086 5.06779C124.086 5.74928 124.086 6.52204 127.803 7.29626C130.6 7.88503 133.809 9.03165 133.809 12.6599C133.809 15.8039 131.156 18 127.357 18ZM122.508 3.9668C122.339 4.35049 122.253 4.76379 122.255 5.18112C122.255 6.97244 123.013 8.10287 127.019 8.94333C130.065 9.56742 131.956 10.43 131.956 12.7953C131.961 13.3568 131.819 13.9103 131.544 14.4041C131.871 13.8782 132.04 13.2741 132.032 12.6599C132.032 11.0408 131.25 9.79557 127.43 8.98749C124.269 8.32954 122.308 7.44345 122.308 5.06779C122.305 4.69242 122.372 4.31957 122.504 3.9668H122.508Z" fill="#CE2029"/>
  <path d="M141.321 1.0922H147.415C151.091 1.0922 153.51 2.98802 153.51 6.15263C153.51 9.56452 150.577 11.3279 147.114 11.3279H143.159V16.9079H141.321V1.0922ZM147.182 9.69994C149.882 9.69994 151.649 8.29868 151.649 6.17471C151.649 3.91533 149.905 2.74074 147.276 2.74074H143.159V9.69994H147.182Z" fill="#CE2029"/>
  <path d="M144.048 17.7733H140.431V0.234047H147.415C151.658 0.234047 154.401 2.55967 154.401 6.15996C154.401 9.76025 151.472 12.1948 147.114 12.1948H144.048V17.7733ZM142.212 16.0424H142.268V1.95765H142.212V16.0424ZM150.243 2.47724C151.706 3.17787 152.544 4.4702 152.544 6.17468C152.556 6.72362 152.453 7.26918 152.241 7.77825C152.03 8.28733 151.714 8.74931 151.312 9.13616C152.103 8.45614 152.623 7.48468 152.623 6.1526C152.619 4.41574 151.767 3.14107 150.249 2.47724H150.243ZM144.042 8.83442H147.176C149.382 8.83442 150.752 7.81586 150.752 6.17468C150.752 3.94032 148.57 3.60619 147.267 3.60619H144.039L144.042 8.83442Z" fill="#CE2029"/>
  <path d="M161.676 1.0922H163.512V16.9079H161.676V1.0922Z" fill="#CE2029"/>
  <path d="M164.403 17.7733H160.785V0.234047H164.403V17.7733ZM162.567 16.0424H162.623V1.95765H162.567V16.0424Z" fill="#CE2029"/>
  <path d="M172.934 1.0922H179.936C181.936 1.0922 183.544 1.68097 184.565 2.67304C185.358 3.44137 185.822 4.54825 185.822 5.83617C185.822 8.45764 183.961 9.99432 181.402 10.4447L186.402 16.9079H184.147L179.424 10.7627H174.772V16.9079H172.934V1.0922ZM179.773 9.15827C182.217 9.15827 183.961 7.93659 183.961 5.85383C183.961 3.91091 182.426 2.73633 179.797 2.73633H174.777V9.15386L179.773 9.15827Z" fill="#CE2029"/>
  <path d="M188.189 17.7733H183.7L178.979 11.6281H175.663V17.7733H172.043V0.234047H179.936C182.112 0.234047 183.979 0.886104 185.196 2.06952C186.173 3.01743 186.711 4.35834 186.711 5.84497C186.711 8.27215 185.314 10.1135 182.905 10.9569L188.189 17.7733ZM184.594 16.0424H184.62L180.911 11.2498L184.594 16.0424ZM173.825 16.0424H173.883V1.95765H173.822L173.825 16.0424ZM175.668 8.28834H179.774C181.368 8.28834 183.07 7.64806 183.07 5.84939C183.07 3.8888 181.02 3.59736 179.797 3.59736H175.668V8.28834ZM183.176 2.71569C184.25 3.40307 184.852 4.48198 184.852 5.8538C184.865 6.64565 184.631 7.42285 184.182 8.08374C184.637 7.53914 184.94 6.81202 184.94 5.83761C184.94 4.80727 184.585 3.90794 183.944 3.28532C183.714 3.06504 183.456 2.87367 183.176 2.71569Z" fill="#CE2029"/>
  <path d="M194.579 1.0922H196.415V16.9079H194.579V1.0922Z" fill="#CE2029"/>
  <path d="M197.306 17.7733H193.688V0.234047H197.306V17.7733ZM195.47 16.0424H195.524V1.95765H195.47V16.0424Z" fill="#CE2029"/>
  <path d="M210.125 2.7363H204.67V1.08775H217.466V2.7363H211.992V16.9034H210.125V2.7363Z" fill="#CE2029"/>
  <path d="M212.884 17.7733H209.238V3.60619H203.783V0.234047H218.36V3.61944H212.884V17.7733ZM211.018 16.0424H211.102V1.95765H211.018V16.0424Z" fill="#CE2029"/>
</svg>