<svg xmlns="http://www.w3.org/2000/svg" width="218" height="18" viewBox="0 0 218 18" fill="none">
  <path d="M109.331 16.7669H104.232C99.6145 16.7669 96.4141 13.5473 96.4141 9.40279C96.4141 5.21396 99.6043 2.03699 104.232 2.03699H109.331V16.7669ZM107.673 15.2338V3.58033H104.231C100.515 3.58033 98.1426 6.14746 98.1426 9.4062C98.1426 12.7092 100.522 15.2338 104.231 15.2338H107.673Z" fill="white"/>
  <path d="M110.153 17.5863H104.235C101.815 17.5863 99.6104 16.7482 98.0314 15.2304C97.253 14.4753 96.6365 13.5691 96.2195 12.5671C95.8024 11.5651 95.5937 10.4884 95.606 9.40282C95.606 4.66036 99.2347 1.21765 104.235 1.21765H110.153V17.5863ZM108.494 15.9476H108.518V2.85639H108.494V15.9476ZM104.235 4.40655C101.132 4.40655 98.9662 6.46434 98.9662 9.41305C98.9662 12.4077 101.084 14.4212 104.235 14.4212H106.859V4.40655H104.235ZM99.1124 4.81538C98.5071 5.41581 98.0293 6.13287 97.708 6.92335C97.3867 7.71382 97.2284 8.56131 97.2427 9.41475C97.2308 10.7266 97.6199 12.0106 98.3577 13.0942C97.6699 11.9868 97.3157 10.7038 97.3379 9.39942C97.308 7.69551 97.9449 6.04758 99.1124 4.80856V4.81538Z" fill="white"/>
  <path d="M88.5746 16.7669H86.9141V2.03699H88.5746V16.7669Z" fill="white"/>
  <path d="M89.3933 17.5873H86.0977V1.21863H89.3933V17.5873ZM87.7327 15.9485H87.7582V2.85737H87.7327V15.9485Z" fill="white"/>
  <path d="M71.5865 17.0126C69.4106 17.0108 67.3107 16.2103 65.6836 14.7623V8.89897H71.7497V10.3912H67.2847V14.0537C68.4957 15.0031 69.9878 15.5209 71.5253 15.5255C75.0946 15.5255 77.3398 12.9175 77.3398 9.4032C77.3398 6.07803 75.0096 3.32352 71.7565 3.32352C69.6795 3.32352 68.4183 4.01683 67.2847 5.00654L66.2156 3.74427C67.6841 2.50244 69.2172 1.78699 71.6936 1.78699C76.1127 1.78699 79.0616 5.36427 79.0616 9.4032C79.0582 13.6534 76.2044 17.0126 71.5865 17.0126Z" fill="white"/>
  <path d="M71.5876 17.8388C69.2117 17.838 66.9186 16.964 65.1425 15.3824L64.8672 15.1388V8.07964H72.5683V11.2106H68.0999V13.6381C69.1094 14.329 70.3023 14.701 71.5247 14.7061C74.511 14.7061 76.52 12.5751 76.52 9.40323C76.52 6.40342 74.4702 4.14292 71.761 4.14292C69.905 4.14292 68.8461 4.73403 67.8263 5.62324L67.2025 6.16835L65.066 3.64721L65.6932 3.11743C67.4745 1.60986 69.271 0.967651 71.6981 0.967651C76.2872 0.967651 79.8836 4.6727 79.8836 9.40323C79.8836 11.7217 79.0933 13.8323 77.6571 15.3654C76.124 16.9837 74.0334 17.8388 71.5876 17.8388ZM76.0067 4.21106C76.7003 4.88353 77.2493 5.691 77.6202 6.58386C77.9911 7.47673 78.176 8.43615 78.1636 9.40323C78.1636 11.2515 77.6061 12.8459 76.6339 14.0401C77.6537 12.8613 78.2502 11.2617 78.2502 9.40323C78.2418 7.2756 77.3919 5.42904 76.0084 4.20765L76.0067 4.21106ZM67.3861 3.87037C67.4643 3.81245 67.5458 3.75453 67.6291 3.70002C67.5509 3.74942 67.4694 3.80563 67.3878 3.86355L67.3861 3.87037Z" fill="white"/>
  <path d="M57.5969 16.7669H55.9414V2.03699H57.5969V16.7669Z" fill="white"/>
  <path d="M58.4194 17.5873H55.1289V1.21863H58.4194V17.5873ZM56.764 15.9485H56.7844V2.85737H56.764V15.9485Z" fill="white"/>
  <path d="M43.5548 16.7674H41.8806V3.58085H36.9414V2.04773H48.4888V3.58085H43.5599L43.5548 16.7674Z" fill="white"/>
  <path d="M44.3734 17.587H41.0642V4.4073H36.125V1.22351H49.3075V4.4073H44.3785L44.3734 17.587ZM42.6993 15.9483H42.7383V2.86225H42.6993V15.9483Z" fill="white"/>
  <path d="M32.7808 16.7673H31.0811L29.3475 12.8749H21.3591L19.6357 16.7673H17.8477L24.5341 1.94714H26.0893L32.7808 16.7673ZM28.688 11.381L25.3295 3.87036L21.9914 11.381H28.688Z" fill="white"/>
  <path d="M34.0545 17.587H30.5566L28.8195 13.6945H21.8883L20.1649 17.587H16.582L24.0095 1.12292H26.6202L34.0545 17.587ZM23.2651 10.5619H27.4394L25.3454 5.87902L23.2651 10.5619Z" fill="white"/>
  <path d="M10.7419 16.7669H0.8125V15.2338H9.08301V2.03699H10.7419V16.7669Z" fill="white"/>
  <path d="M11.5576 17.5863H0V14.4144H8.27051V1.21765H11.5644L11.5576 17.5863ZM9.89877 15.9476H9.92257V2.85639H9.89877V15.9476Z" fill="white"/>
  <path d="M120.508 14.6026L121.647 13.2926C123.341 14.7836 124.968 15.5299 127.222 15.5299C129.403 15.5299 130.843 14.4009 130.843 12.7951C130.843 11.3232 130.035 10.4901 126.617 9.78943C122.875 9.00196 121.158 7.8259 121.158 5.18087C121.158 2.69629 123.412 0.865234 126.495 0.865234C128.865 0.865234 130.56 1.5217 132.208 2.80815L131.141 4.18587C129.628 2.98773 128.116 2.46814 126.452 2.46814C124.334 2.46814 122.99 3.5971 122.99 5.06754C122.99 6.53798 123.827 7.3961 127.403 8.14089C131.034 8.90923 132.698 10.2016 132.698 12.6597C132.698 15.3724 130.376 17.1343 127.146 17.1343C124.573 17.1343 122.461 16.2982 120.508 14.6026Z" fill="#CE2029"/>
  <path d="M127.147 18C124.377 18 122.079 17.1257 119.915 15.249L119.27 14.6882L121.563 12.0505L122.244 12.6511C123.87 14.0818 125.312 14.6646 127.222 14.6646C128.886 14.6646 129.954 13.9287 129.954 12.7953C129.954 12.0888 129.954 11.3587 126.434 10.636C123.23 9.96189 120.269 8.83588 120.269 5.18112C120.269 2.227 122.947 0 126.496 0C128.942 0 130.883 0.657943 132.765 2.1328L133.438 2.65827L131.295 5.42546L130.579 4.85731C129.271 3.81814 127.961 3.33388 126.452 3.33388C124.914 3.33388 123.881 4.03009 123.881 5.06779C123.881 5.74928 123.881 6.52204 127.591 7.29626C130.384 7.88503 133.588 9.03165 133.588 12.6599C133.588 15.8039 130.939 18 127.147 18ZM122.306 3.9668C122.137 4.35049 122.051 4.76379 122.053 5.18112C122.053 6.97244 122.809 8.10287 126.809 8.94333C129.85 9.56742 131.738 10.43 131.738 12.7953C131.743 13.3568 131.601 13.9103 131.327 14.4041C131.653 13.8782 131.821 13.2741 131.814 12.6599C131.814 11.0408 131.033 9.79557 127.219 8.98749C124.064 8.32954 122.106 7.44345 122.106 5.06779C122.103 4.69242 122.169 4.31957 122.301 3.9668H122.306Z" fill="#CE2029"/>
  <path d="M141.086 1.0918H147.17C150.84 1.0918 153.255 2.98762 153.255 6.15223C153.255 9.56412 150.328 11.3275 146.869 11.3275H142.921V16.9075H141.086V1.0918ZM146.937 9.69953C149.633 9.69953 151.397 8.29827 151.397 6.1743C151.397 3.91492 149.656 2.74034 147.031 2.74034H142.921V9.69953H146.937Z" fill="#CE2029"/>
  <path d="M143.81 17.7737H140.199V0.234375H147.172C151.408 0.234375 154.146 2.56 154.146 6.16029C154.146 9.76058 151.221 12.1951 146.871 12.1951H143.81V17.7737ZM141.977 16.0427H142.033V1.95798H141.977V16.0427ZM149.995 2.47757C151.456 3.17819 152.293 4.47053 152.293 6.175C152.304 6.72395 152.201 7.26951 151.99 7.77858C151.779 8.28766 151.463 8.74964 151.063 9.13649C151.852 8.45647 152.371 7.48501 152.371 6.15293C152.367 4.41607 151.516 3.1414 150.001 2.47757H149.995ZM143.804 8.83475H146.933C149.135 8.83475 150.503 7.81618 150.503 6.175C150.503 3.94064 148.324 3.60652 147.023 3.60652H143.801L143.804 8.83475Z" fill="#CE2029"/>
  <path d="M161.41 1.0918H163.244V16.9075H161.41V1.0918Z" fill="#CE2029"/>
  <path d="M164.132 17.7737H160.52V0.234375H164.132V17.7737ZM162.299 16.0427H162.355V1.95798H162.299V16.0427Z" fill="#CE2029"/>
  <path d="M172.648 1.0918H179.639C181.636 1.0918 183.241 1.68056 184.261 2.67263C185.052 3.44097 185.515 4.54784 185.515 5.83577C185.515 8.45724 183.657 9.99391 181.102 10.4443L186.094 16.9075H183.843L179.128 10.7623H174.483V16.9075H172.648V1.0918ZM179.476 9.15787C181.916 9.15787 183.657 7.93618 183.657 5.85343C183.657 3.91051 182.125 2.73592 179.5 2.73592H174.488V9.15345L179.476 9.15787Z" fill="#CE2029"/>
  <path d="M187.877 17.7737H183.396L178.682 11.6284H175.372V17.7737H171.758V0.234375H179.638C181.81 0.234375 183.674 0.886432 184.889 2.06985C185.865 3.01776 186.402 4.35867 186.402 5.8453C186.402 8.27248 185.007 10.1138 182.602 10.9572L187.877 17.7737ZM184.288 16.0427H184.314L180.611 11.2502L184.288 16.0427ZM173.537 16.0427H173.594V1.95798H173.534L173.537 16.0427ZM175.376 8.28867H179.476C181.068 8.28867 182.766 7.64839 182.766 5.84971C182.766 3.88913 180.72 3.59769 179.499 3.59769H175.376V8.28867ZM182.872 2.71601C183.945 3.4034 184.546 4.48231 184.546 5.85413C184.558 6.64598 184.325 7.42318 183.877 8.08407C184.331 7.53947 184.633 6.81234 184.633 5.83794C184.633 4.8076 184.279 3.90827 183.639 3.28565C183.409 3.06537 183.151 2.874 182.872 2.71601Z" fill="#CE2029"/>
  <path d="M194.258 1.0918H196.091V16.9075H194.258V1.0918Z" fill="#CE2029"/>
  <path d="M196.98 17.7737H193.367V0.234375H196.98V17.7737ZM195.146 16.0427H195.201V1.95798H195.146V16.0427Z" fill="#CE2029"/>
  <path d="M209.778 2.73643H204.332V1.08789H217.106V2.73643H211.642V16.9036H209.778V2.73643Z" fill="#CE2029"/>
  <path d="M212.531 17.7737H208.891V3.60652H203.445V0.234375H217.998V3.61977H212.531V17.7737ZM210.669 16.0427H210.752V1.95798H210.669V16.0427Z" fill="#CE2029"/>
</svg>