<svg xmlns="http://www.w3.org/2000/svg" width="90" height="24" viewBox="0 0 90 24" fill="none">
  <path d="M20 22.8459H11.8638C8.53645 22.8459 5.50583 21.7194 3.33509 19.6795C2.26503 18.6646 1.41743 17.4466 0.844114 16.0999C0.2708 14.7532 -0.0161866 13.3061 0.00070455 11.847C0.00070455 5.47297 4.98943 0.845856 11.8638 0.845856H20V22.8459ZM17.7194 20.6433H17.7522V3.04837H17.7194V20.6433ZM11.8638 5.13184C7.59712 5.13184 4.62024 7.89758 4.62024 11.8607C4.62024 15.8857 7.53169 18.5919 11.8638 18.5919H15.4716V5.13184H11.8638ZM4.82119 5.68132C3.98903 6.48832 3.33229 7.45208 2.89054 8.5145C2.4488 9.57692 2.2312 10.716 2.25089 11.863C2.23448 13.6262 2.76939 15.352 3.78372 16.8084C2.83806 15.3199 2.35123 13.5955 2.38174 11.8424C2.34055 9.55231 3.21622 7.33744 4.82119 5.67216V5.68132Z" fill="#1E1E1E"/>
  <path d="M33.7787 23.1543C30.3401 23.1543 27.4874 22.0707 24.8019 19.7448L24 19.0498L26.847 15.7808L27.6921 16.5251C29.711 18.2982 31.5007 19.0206 33.8726 19.0206C35.9384 19.0206 37.2643 18.1085 37.2643 16.7038C37.2643 15.8282 37.2643 14.9234 32.8942 14.0277C28.9166 13.1922 25.2414 11.7967 25.2414 7.26712C25.2414 3.6059 28.5654 0.845856 32.9712 0.845856C36.0079 0.845856 38.4173 1.66128 40.7536 3.48916L41.5893 4.1404L38.9282 7.56994L38.0399 6.8658C36.4154 5.57789 34.7891 4.97772 32.9167 4.97772C31.0068 4.97772 29.7241 5.84058 29.7241 7.12666C29.7241 7.97127 29.7241 8.929 34.3308 9.88854C37.7976 10.6182 41.7752 12.0393 41.7752 16.536C41.7752 20.4326 38.4868 23.1543 33.7787 23.1543ZM27.7691 5.76214C27.5597 6.23767 27.4529 6.7499 27.4555 7.26712C27.4555 9.4872 28.3945 10.8882 33.3599 11.9298C37.1347 12.7033 39.4784 13.7723 39.4784 16.7038C39.4842 17.3997 39.3084 18.0856 38.9676 18.6977C39.3723 18.0459 39.5818 17.2972 39.5723 16.536C39.5723 14.5294 38.6033 12.9861 33.8688 11.9846C29.9514 11.1691 27.5212 10.071 27.5212 7.12666C27.5178 6.66144 27.5998 6.19935 27.7635 5.76214H27.7691Z" fill="#CE2029"/>
</svg>