<svg width="24" height="24" viewBox="0 0 24 24" fill="currentColor" xmlns="http://www.w3.org/2000/svg">
<path d="M21 7V17C21 20 19.5 22 16 22H8C4.5 22 3 20 3 17V7C3 4 4.5 2 8 2H16C19.5 2 21 4 21 7Z" stroke="currentColor" fill="none" stroke-width="1.5" stroke-miterlimit="10" stroke-linecap="round" stroke-linejoin="round"/>
<path d="M14.5 4.5V6.5C14.5 7.6 15.4 8.5 16.5 8.5H18.5" stroke="currentColor" fill="none" stroke-width="1.5" stroke-miterlimit="10" stroke-linecap="round" stroke-linejoin="round"/>
<path d="M9.15141 15.724C9.45141 15.724 9.72341 15.794 9.96741 15.934C10.2154 16.07 10.4094 16.264 10.5494 16.516C10.6894 16.764 10.7594 17.054 10.7594 17.386C10.7594 17.718 10.6894 18.01 10.5494 18.262C10.4094 18.51 10.2154 18.704 9.96741 18.844C9.72341 18.98 9.45141 19.048 9.15141 19.048C8.73941 19.048 8.41541 18.918 8.17941 18.658V20.164H7.24341V15.772H8.13741V16.144C8.36941 15.864 8.70741 15.724 9.15141 15.724ZM8.98941 18.28C9.22941 18.28 9.42541 18.2 9.57741 18.04C9.73341 17.876 9.81141 17.658 9.81141 17.386C9.81141 17.114 9.73341 16.898 9.57741 16.738C9.42541 16.574 9.22941 16.492 8.98941 16.492C8.74941 16.492 8.55141 16.574 8.39541 16.738C8.24341 16.898 8.16741 17.114 8.16741 17.386C8.16741 17.658 8.24341 17.876 8.39541 18.04C8.55141 18.2 8.74941 18.28 8.98941 18.28ZM14.554 14.548V19H13.66V18.628C13.428 18.908 13.092 19.048 12.652 19.048C12.348 19.048 12.072 18.98 11.824 18.844C11.58 18.708 11.388 18.514 11.248 18.262C11.108 18.01 11.038 17.718 11.038 17.386C11.038 17.054 11.108 16.762 11.248 16.51C11.388 16.258 11.58 16.064 11.824 15.928C12.072 15.792 12.348 15.724 12.652 15.724C13.064 15.724 13.386 15.854 13.618 16.114V14.548H14.554ZM12.814 18.28C13.05 18.28 13.246 18.2 13.402 18.04C13.558 17.876 13.636 17.658 13.636 17.386C13.636 17.114 13.558 16.898 13.402 16.738C13.246 16.574 13.05 16.492 12.814 16.492C12.574 16.492 12.376 16.574 12.22 16.738C12.064 16.898 11.986 17.114 11.986 17.386C11.986 17.658 12.064 17.876 12.22 18.04C12.376 18.2 12.574 18.28 12.814 18.28ZM16.3263 15.844H17.1543V16.564H16.3503V19H15.4143V16.564H14.9163V15.844H15.4143V15.7C15.4143 15.332 15.5223 15.04 15.7383 14.824C15.9583 14.608 16.2663 14.5 16.6623 14.5C16.8023 14.5 16.9343 14.516 17.0583 14.548C17.1863 14.576 17.2923 14.618 17.3763 14.674L17.1303 15.352C17.0223 15.276 16.8963 15.238 16.7523 15.238C16.4683 15.238 16.3263 15.394 16.3263 15.706V15.844Z" fill="currentColor"/>
</svg>
