<svg xmlns="http://www.w3.org/2000/svg" width="40" height="40" viewBox="0 0 40 40" fill="currentColor">
  <path fill-rule="evenodd" clip-rule="evenodd" d="M19.9993 5C12.6123 5 6.66602 11.1715 6.66602 18.7315C6.66602 22.4846 8.12984 26.5053 10.4718 29.595C12.8084 32.6776 16.1566 35 19.9993 35C23.8421 35 27.1903 32.6776 29.5269 29.595C31.8689 26.5053 33.3327 22.4846 33.3327 18.7315C33.3327 11.1715 27.3864 5 19.9993 5ZM15.2755 17.6923C15.2755 15.0583 17.3905 12.9231 19.9993 12.9231C22.6082 12.9231 24.7232 15.0583 24.7232 17.6923C24.7232 20.3263 22.6082 22.4615 19.9993 22.4615C17.3905 22.4615 15.2755 20.3263 15.2755 17.6923ZM19.9993 14.7692C18.4004 14.7692 17.1041 16.0779 17.1041 17.6923C17.1041 19.3067 18.4004 20.6154 19.9993 20.6154C21.5983 20.6154 22.8946 19.3067 22.8946 17.6923C22.8946 16.0779 21.5983 14.7692 19.9993 14.7692Z" fill="currentColor"/>
</svg>