<svg xmlns="http://www.w3.org/2000/svg" width="41" height="40" viewBox="0 0 41 40" fill="currentColor">
  <path d="M9.09615 13.1429C9.09615 9.56616 12.0235 6.66667 15.6346 6.66667C19.2457 6.66667 22.1731 9.56616 22.1731 13.1429C22.1731 16.7196 19.2457 19.619 15.6346 19.619C12.0235 19.619 9.09615 16.7196 9.09615 13.1429Z" fill="currentColor"/>
  <path d="M11.5021 22.5436L11.776 22.5002C14.3323 22.0962 16.937 22.0962 19.4932 22.5002L19.7672 22.5436C23.369 23.1129 26.0192 26.1901 26.0192 29.8027C26.0192 31.7526 24.4233 33.3333 22.4547 33.3333H8.81456C6.84591 33.3333 5.25 31.7526 5.25 29.8027C5.25 26.1901 7.90026 23.1129 11.5021 22.5436Z" fill="currentColor"/>
  <path d="M24.8654 6.66667C24.2281 6.66667 23.7115 7.17834 23.7115 7.80953C23.7115 8.44071 24.2281 8.95238 24.8654 8.95238C27.202 8.95238 29.0962 10.8285 29.0962 13.1429C29.0962 15.4572 27.202 17.3333 24.8654 17.3333C24.2281 17.3333 23.7115 17.845 23.7115 18.4762C23.7115 19.1074 24.2281 19.619 24.8654 19.619C28.4765 19.619 31.4038 16.7196 31.4038 13.1429C31.4038 9.56616 28.4765 6.66667 24.8654 6.66667Z" fill="currentColor"/>
  <path d="M26.7749 22.486C26.1376 22.486 25.621 22.9976 25.621 23.6288C25.621 24.26 26.1376 24.7717 26.7749 24.7717H28.2643C28.3882 24.7717 28.5121 24.7814 28.6343 24.8007C31.1161 25.193 32.9423 27.3134 32.9423 29.8027C32.9423 30.4903 32.3796 31.0476 31.6854 31.0476H28.5421C27.9049 31.0476 27.3883 31.5593 27.3883 32.1905C27.3883 32.8217 27.9049 33.3333 28.5421 33.3333H31.6854C33.6541 33.3333 35.25 31.7526 35.25 29.8027C35.25 26.1901 32.5997 23.1129 28.9979 22.5436C28.7553 22.5052 28.5098 22.486 28.2643 22.486H26.7749Z" fill="currentColor"/>
</svg>