<svg xmlns="http://www.w3.org/2000/svg" width="41" height="40" viewBox="0 0 41 40" fill="currentColor">
  <path d="M25.0117 8.20978C23.2335 3.93008 17.2665 3.93007 15.4883 8.20978L14.5561 10.4531C14.185 11.3464 13.3762 11.9538 12.4518 12.0585L9.85065 12.353C5.45347 12.8509 3.69883 18.3248 6.86049 21.3815L9.06903 23.5167C9.72152 24.1475 10.0149 25.0832 9.83497 25.9933L9.30173 28.6904C8.4164 33.1683 13.2417 36.6637 17.1298 34.1676L18.8742 33.0476C19.7161 32.5071 20.7839 32.5071 21.6258 33.0476L23.3702 34.1676C27.2583 36.6637 32.0836 33.1683 31.1983 28.6904L30.665 25.9933C30.4851 25.0832 30.7785 24.1475 31.431 23.5167L33.6395 21.3815C36.8012 18.3248 35.0465 12.8509 30.6494 12.353L28.0482 12.0585C27.1238 11.9538 26.315 11.3464 25.9439 10.4531L25.0117 8.20978Z" fill="currentColor"/>
</svg>