<svg xmlns="http://www.w3.org/2000/svg" width="41" height="40" viewBox="0 0 41 40" fill="currentColor">
  <path fill-rule="evenodd" clip-rule="evenodd" d="M27.7058 10.9485C27.1489 8.23519 25.0824 6.00322 22.2933 5.26553C20.9547 4.91149 19.5453 4.91149 18.2067 5.26553C15.4176 6.00322 13.3511 8.23519 12.7942 10.9485C9.81566 11.7319 7.40094 13.8811 6.2996 16.7138C8.22079 17.4219 10.3729 17.9593 12.6448 18.3262V17.8101C12.6448 17.1552 13.1824 16.6244 13.8456 16.6244C14.5088 16.6244 15.0464 17.1552 15.0464 17.8101V18.6462C18.4581 19.0084 22.0419 19.0084 25.4536 18.6462V17.8101C25.4536 17.1552 25.9912 16.6244 26.6544 16.6244C27.3176 16.6244 27.8552 17.1552 27.8552 17.8101V18.3262C30.1271 17.9593 32.2792 17.4219 34.2004 16.7138C33.0991 13.8811 30.6843 11.7319 27.7058 10.9485ZM21.6719 7.55628C20.7404 7.3099 19.7596 7.3099 18.8281 7.55628C17.2905 7.96295 16.0756 9.03788 15.4693 10.4133C18.631 9.85143 21.869 9.85143 25.0307 10.4133C24.4244 9.03788 23.2094 7.96295 21.6719 7.55628Z" fill="currentColor"/>
  <path d="M25.4536 21.0304V23.3436C25.4536 23.9985 25.9912 24.5293 26.6544 24.5293C27.3176 24.5293 27.8552 23.9985 27.8552 23.3436V20.7269C30.3546 20.3454 32.7321 19.7697 34.8636 19C35.4523 21.6654 35.3669 24.4491 34.6171 27.0796C33.5557 30.803 30.4544 33.6492 26.6024 34.3927C22.4072 35.2024 18.0928 35.2024 13.8976 34.3927C10.0456 33.6492 6.94433 30.803 5.88292 27.0796C5.13308 24.4491 5.04773 21.6654 5.63636 19C7.76787 19.7697 10.1454 20.3454 12.6448 20.7269V23.3436C12.6448 23.9985 13.1824 24.5293 13.8456 24.5293C14.5088 24.5293 15.0464 23.9985 15.0464 23.3436V21.0304C18.4664 21.3757 22.0336 21.3757 25.4536 21.0304Z" fill="currentColor"/>
</svg>